# xmcd CD database file
#
# Track frame offsets:
#	150
#	20840
#	42275
#	78005
#	100410
#	121597
#	148035
#	168307
#	194380
#	225941
#	250306
#	280877
#
# Disc length: 4104 seconds
#
# Revision: 0
# Processed by: cddbd v1.5.1PL0 Copyright (c) Steve Scherf et al.
# Submitted via: Feurio! 1.68 - http://www.feurio.com
#
DISCID=9810060c
DTITLE=Boo Boo Davis - East St. Louis
DYEAR=1999
DGENRE=Blues
TTITLE0=Sad Thing
TTITLE1=We're In Hell
TTITLE2=Sombody Have Mercy
TTITLE3=Hard Times
TTITLE4=East St. Louis
TTITLE5=Ice Storm
TTITLE6=Talkin' 'bout My Dogs
TTITLE7=Ain't Got No Problems
TTITLE8=What Makes A Fool Fall In Love
TTITLE9=Walk That Walk
TTITLE10=I Had A Dream
TTITLE11=Walk On Tall
EXTD=
EXTT0=
EXTT1=
EXTT2=
EXTT3=
EXTT4=
EXTT5=
EXTT6=
EXTT7=
EXTT8=
EXTT9=
EXTT10=
EXTT11=
PLAYORDER=
